<?xml version="1.0" encoding="utf-8" standalone="no"?>
<!DOCTYPE svg PUBLIC "-//W3C//DTD SVG 1.1//EN"
  "http://www.w3.org/Graphics/SVG/1.1/DTD/svg11.dtd">
<svg xmlns:xlink="http://www.w3.org/1999/xlink" width="864pt" height="576pt" viewBox="0 0 864 576" xmlns="http://www.w3.org/2000/svg" version="1.1">
 <metadata>
  <rdf:RDF xmlns:dc="http://purl.org/dc/elements/1.1/" xmlns:cc="http://creativecommons.org/ns#" xmlns:rdf="http://www.w3.org/1999/02/22-rdf-syntax-ns#">
   <cc:Work>
    <dc:type rdf:resource="http://purl.org/dc/dcmitype/StillImage"/>
    <dc:date>2024-05-22T11:36:33.151892</dc:date>
    <dc:format>image/svg+xml</dc:format>
    <dc:creator>
     <cc:Agent>
      <dc:title>Matplotlib v3.9.0, https://matplotlib.org/</dc:title>
     </cc:Agent>
    </dc:creator>
   </cc:Work>
  </rdf:RDF>
 </metadata>
 <defs>
  <style type="text/css">*{stroke-linejoin: round; stroke-linecap: butt}</style>
 </defs>
 <g id="figure_1">
  <g id="patch_1">
   <path d="M 0 576 
L 864 576 
L 864 0 
L 0 0 
z
" style="fill: #ffffff"/>
  </g>
  <g id="axes_1">
   <g id="patch_2">
    <path d="M 108 460.8 
L 777.6 460.8 
L 777.6 69.12 
L 108 69.12 
z
" style="fill: #ffffff"/>
   </g>
   <g id="matplotlib.axis_1">
    <g id="xtick_1">
     <g id="line2d_1">
      <defs>
       <path id="m79a43a8f93" d="M 0 0 
L 0 -3.5 
" style="stroke: #ff0000; stroke-width: 0.8"/>
      </defs>
      <g>
       <use xlink:href="#m79a43a8f93" x="108" y="460.8" style="fill: #ff0000; stroke: #ff0000; stroke-width: 0.8"/>
      </g>
     </g>
     <g id="text_1">
      <!-- 2007-01 -->
      <g style="fill: #ff0000" transform="translate(62.956742 497.48184) rotate(-30) scale(0.12 -0.12)">
       <defs>
        <path id="DejaVuSansMono-Bold-32" d="M 1356 813 
L 3322 813 
L 3322 0 
L 359 0 
L 359 788 
L 859 1319 
Q 1750 2266 1941 2484 
Q 2175 2753 2278 2961 
Q 2381 3169 2381 3372 
Q 2381 3684 2192 3854 
Q 2003 4025 1656 4025 
Q 1409 4025 1101 3926 
Q 794 3828 459 3641 
L 459 4500 
Q 794 4622 1114 4686 
Q 1434 4750 1728 4750 
Q 2469 4750 2892 4404 
Q 3316 4059 3316 3463 
Q 3316 3188 3223 2947 
Q 3131 2706 2906 2413 
Q 2741 2200 1997 1456 
Q 1594 1053 1356 813 
z
" transform="scale(0.015625)"/>
        <path id="DejaVuSansMono-Bold-30" d="M 1538 2328 
Q 1538 2494 1650 2606 
Q 1763 2719 1925 2719 
Q 2091 2719 2203 2606 
Q 2316 2494 2316 2328 
Q 2316 2166 2203 2053 
Q 2091 1941 1925 1941 
Q 1763 1941 1650 2052 
Q 1538 2163 1538 2328 
z
M 1925 3969 
Q 1606 3969 1459 3578 
Q 1313 3188 1313 2328 
Q 1313 1472 1459 1081 
Q 1606 691 1925 691 
Q 2247 691 2394 1081 
Q 2541 1472 2541 2328 
Q 2541 3188 2394 3578 
Q 2247 3969 1925 3969 
z
M 384 2328 
Q 384 3541 768 4145 
Q 1153 4750 1925 4750 
Q 2700 4750 3084 4147 
Q 3469 3544 3469 2328 
Q 3469 1116 3084 512 
Q 2700 -91 1925 -91 
Q 1153 -91 768 514 
Q 384 1119 384 2328 
z
" transform="scale(0.015625)"/>
        <path id="DejaVuSansMono-Bold-37" d="M 422 4666 
L 3372 4666 
L 3372 4013 
L 1791 0 
L 850 0 
L 2369 3853 
L 422 3853 
L 422 4666 
z
" transform="scale(0.015625)"/>
        <path id="DejaVuSansMono-Bold-2d" d="M 941 2297 
L 2913 2297 
L 2913 1388 
L 941 1388 
L 941 2297 
z
" transform="scale(0.015625)"/>
        <path id="DejaVuSansMono-Bold-31" d="M 588 813 
L 1619 813 
L 1619 3841 
L 659 3603 
L 659 4434 
L 1625 4666 
L 2516 4666 
L 2516 813 
L 3547 813 
L 3547 0 
L 588 0 
L 588 813 
z
" transform="scale(0.015625)"/>
       </defs>
       <use xlink:href="#DejaVuSansMono-Bold-32"/>
       <use xlink:href="#DejaVuSansMono-Bold-30" x="60.205078"/>
       <use xlink:href="#DejaVuSansMono-Bold-30" x="120.410156"/>
       <use xlink:href="#DejaVuSansMono-Bold-37" x="180.615234"/>
       <use xlink:href="#DejaVuSansMono-Bold-2d" x="240.820312"/>
       <use xlink:href="#DejaVuSansMono-Bold-30" x="301.025391"/>
       <use xlink:href="#DejaVuSansMono-Bold-31" x="361.230469"/>
      </g>
     </g>
    </g>
    <g id="xtick_2">
     <g id="line2d_2">
      <g>
       <use xlink:href="#m79a43a8f93" x="190.955236" y="460.8" style="fill: #ff0000; stroke: #ff0000; stroke-width: 0.8"/>
      </g>
     </g>
     <g id="text_2">
      <!-- 2007-07 -->
      <g style="fill: #ff0000" transform="translate(145.911978 497.48184) rotate(-30) scale(0.12 -0.12)">
       <use xlink:href="#DejaVuSansMono-Bold-32"/>
       <use xlink:href="#DejaVuSansMono-Bold-30" x="60.205078"/>
       <use xlink:href="#DejaVuSansMono-Bold-30" x="120.410156"/>
       <use xlink:href="#DejaVuSansMono-Bold-37" x="180.615234"/>
       <use xlink:href="#DejaVuSansMono-Bold-2d" x="240.820312"/>
       <use xlink:href="#DejaVuSansMono-Bold-30" x="301.025391"/>
       <use xlink:href="#DejaVuSansMono-Bold-37" x="361.230469"/>
      </g>
     </g>
    </g>
    <g id="xtick_3">
     <g id="line2d_3">
      <g>
       <use xlink:href="#m79a43a8f93" x="275.285421" y="460.8" style="fill: #ff0000; stroke: #ff0000; stroke-width: 0.8"/>
      </g>
     </g>
     <g id="text_3">
      <!-- 2008-01 -->
      <g style="fill: #ff0000" transform="translate(230.242163 497.48184) rotate(-30) scale(0.12 -0.12)">
       <defs>
        <path id="DejaVuSansMono-Bold-38" d="M 1925 2081 
Q 1616 2081 1425 1886 
Q 1234 1691 1234 1369 
Q 1234 1047 1425 850 
Q 1616 653 1925 653 
Q 2234 653 2426 853 
Q 2619 1053 2619 1369 
Q 2619 1691 2428 1886 
Q 2238 2081 1925 2081 
z
M 1241 2472 
Q 888 2594 703 2855 
Q 519 3116 519 3494 
Q 519 4075 897 4412 
Q 1275 4750 1925 4750 
Q 2578 4750 2956 4412 
Q 3334 4075 3334 3494 
Q 3334 3119 3153 2858 
Q 2972 2597 2625 2472 
Q 3013 2353 3231 2047 
Q 3450 1741 3450 1313 
Q 3450 641 3053 275 
Q 2656 -91 1925 -91 
Q 1197 -91 800 275 
Q 403 641 403 1313 
Q 403 1744 625 2050 
Q 847 2356 1241 2472 
z
M 1338 3419 
Q 1338 3144 1495 2983 
Q 1653 2822 1925 2822 
Q 2200 2822 2358 2983 
Q 2516 3144 2516 3419 
Q 2516 3691 2358 3848 
Q 2200 4006 1925 4006 
Q 1656 4006 1497 3847 
Q 1338 3688 1338 3419 
z
" transform="scale(0.015625)"/>
       </defs>
       <use xlink:href="#DejaVuSansMono-Bold-32"/>
       <use xlink:href="#DejaVuSansMono-Bold-30" x="60.205078"/>
       <use xlink:href="#DejaVuSansMono-Bold-30" x="120.410156"/>
       <use xlink:href="#DejaVuSansMono-Bold-38" x="180.615234"/>
       <use xlink:href="#DejaVuSansMono-Bold-2d" x="240.820312"/>
       <use xlink:href="#DejaVuSansMono-Bold-30" x="301.025391"/>
       <use xlink:href="#DejaVuSansMono-Bold-31" x="361.230469"/>
      </g>
     </g>
    </g>
    <g id="xtick_4">
     <g id="line2d_4">
      <g>
       <use xlink:href="#m79a43a8f93" x="358.698973" y="460.8" style="fill: #ff0000; stroke: #ff0000; stroke-width: 0.8"/>
      </g>
     </g>
     <g id="text_4">
      <!-- 2008-07 -->
      <g style="fill: #ff0000" transform="translate(313.655715 497.48184) rotate(-30) scale(0.12 -0.12)">
       <use xlink:href="#DejaVuSansMono-Bold-32"/>
       <use xlink:href="#DejaVuSansMono-Bold-30" x="60.205078"/>
       <use xlink:href="#DejaVuSansMono-Bold-30" x="120.410156"/>
       <use xlink:href="#DejaVuSansMono-Bold-38" x="180.615234"/>
       <use xlink:href="#DejaVuSansMono-Bold-2d" x="240.820312"/>
       <use xlink:href="#DejaVuSansMono-Bold-30" x="301.025391"/>
       <use xlink:href="#DejaVuSansMono-Bold-37" x="361.230469"/>
      </g>
     </g>
    </g>
    <g id="xtick_5">
     <g id="line2d_5">
      <g>
       <use xlink:href="#m79a43a8f93" x="443.029158" y="460.8" style="fill: #ff0000; stroke: #ff0000; stroke-width: 0.8"/>
      </g>
     </g>
     <g id="text_5">
      <!-- 2009-01 -->
      <g style="fill: #ff0000" transform="translate(397.9859 497.48184) rotate(-30) scale(0.12 -0.12)">
       <defs>
        <path id="DejaVuSansMono-Bold-39" d="M 634 63 
L 634 903 
Q 881 759 1107 690 
Q 1334 622 1544 622 
Q 2041 622 2302 955 
Q 2563 1288 2578 1950 
Q 2431 1747 2203 1645 
Q 1975 1544 1663 1544 
Q 1034 1544 690 1942 
Q 347 2341 347 3072 
Q 347 3853 731 4281 
Q 1116 4709 1819 4709 
Q 2672 4709 3058 4139 
Q 3444 3569 3444 2297 
Q 3444 1088 2972 483 
Q 2500 -122 1556 -122 
Q 1338 -122 1105 -75 
Q 872 -28 634 63 
z
M 1844 2316 
Q 2141 2316 2298 2533 
Q 2456 2750 2456 3163 
Q 2456 3572 2298 3789 
Q 2141 4006 1844 4006 
Q 1544 4006 1383 3789 
Q 1222 3572 1222 3163 
Q 1222 2753 1383 2534 
Q 1544 2316 1844 2316 
z
" transform="scale(0.015625)"/>
       </defs>
       <use xlink:href="#DejaVuSansMono-Bold-32"/>
       <use xlink:href="#DejaVuSansMono-Bold-30" x="60.205078"/>
       <use xlink:href="#DejaVuSansMono-Bold-30" x="120.410156"/>
       <use xlink:href="#DejaVuSansMono-Bold-39" x="180.615234"/>
       <use xlink:href="#DejaVuSansMono-Bold-2d" x="240.820312"/>
       <use xlink:href="#DejaVuSansMono-Bold-30" x="301.025391"/>
       <use xlink:href="#DejaVuSansMono-Bold-31" x="361.230469"/>
      </g>
     </g>
    </g>
    <g id="xtick_6">
     <g id="line2d_6">
      <g>
       <use xlink:href="#m79a43a8f93" x="525.984394" y="460.8" style="fill: #ff0000; stroke: #ff0000; stroke-width: 0.8"/>
      </g>
     </g>
     <g id="text_6">
      <!-- 2009-07 -->
      <g style="fill: #ff0000" transform="translate(480.941136 497.48184) rotate(-30) scale(0.12 -0.12)">
       <use xlink:href="#DejaVuSansMono-Bold-32"/>
       <use xlink:href="#DejaVuSansMono-Bold-30" x="60.205078"/>
       <use xlink:href="#DejaVuSansMono-Bold-30" x="120.410156"/>
       <use xlink:href="#DejaVuSansMono-Bold-39" x="180.615234"/>
       <use xlink:href="#DejaVuSansMono-Bold-2d" x="240.820312"/>
       <use xlink:href="#DejaVuSansMono-Bold-30" x="301.025391"/>
       <use xlink:href="#DejaVuSansMono-Bold-37" x="361.230469"/>
      </g>
     </g>
    </g>
    <g id="xtick_7">
     <g id="line2d_7">
      <g>
       <use xlink:href="#m79a43a8f93" x="610.314579" y="460.8" style="fill: #ff0000; stroke: #ff0000; stroke-width: 0.8"/>
      </g>
     </g>
     <g id="text_7">
      <!-- 2010-01 -->
      <g style="fill: #ff0000" transform="translate(565.271321 497.48184) rotate(-30) scale(0.12 -0.12)">
       <use xlink:href="#DejaVuSansMono-Bold-32"/>
       <use xlink:href="#DejaVuSansMono-Bold-30" x="60.205078"/>
       <use xlink:href="#DejaVuSansMono-Bold-31" x="120.410156"/>
       <use xlink:href="#DejaVuSansMono-Bold-30" x="180.615234"/>
       <use xlink:href="#DejaVuSansMono-Bold-2d" x="240.820312"/>
       <use xlink:href="#DejaVuSansMono-Bold-30" x="301.025391"/>
       <use xlink:href="#DejaVuSansMono-Bold-31" x="361.230469"/>
      </g>
     </g>
    </g>
    <g id="xtick_8">
     <g id="line2d_8">
      <g>
       <use xlink:href="#m79a43a8f93" x="693.269815" y="460.8" style="fill: #ff0000; stroke: #ff0000; stroke-width: 0.8"/>
      </g>
     </g>
     <g id="text_8">
      <!-- 2010-07 -->
      <g style="fill: #ff0000" transform="translate(648.226557 497.48184) rotate(-30) scale(0.12 -0.12)">
       <use xlink:href="#DejaVuSansMono-Bold-32"/>
       <use xlink:href="#DejaVuSansMono-Bold-30" x="60.205078"/>
       <use xlink:href="#DejaVuSansMono-Bold-31" x="120.410156"/>
       <use xlink:href="#DejaVuSansMono-Bold-30" x="180.615234"/>
       <use xlink:href="#DejaVuSansMono-Bold-2d" x="240.820312"/>
       <use xlink:href="#DejaVuSansMono-Bold-30" x="301.025391"/>
       <use xlink:href="#DejaVuSansMono-Bold-37" x="361.230469"/>
      </g>
     </g>
    </g>
    <g id="xtick_9">
     <g id="line2d_9">
      <g>
       <use xlink:href="#m79a43a8f93" x="777.6" y="460.8" style="fill: #ff0000; stroke: #ff0000; stroke-width: 0.8"/>
      </g>
     </g>
     <g id="text_9">
      <!-- 2011-01 -->
      <g style="fill: #ff0000" transform="translate(732.556742 497.48184) rotate(-30) scale(0.12 -0.12)">
       <use xlink:href="#DejaVuSansMono-Bold-32"/>
       <use xlink:href="#DejaVuSansMono-Bold-30" x="60.205078"/>
       <use xlink:href="#DejaVuSansMono-Bold-31" x="120.410156"/>
       <use xlink:href="#DejaVuSansMono-Bold-31" x="180.615234"/>
       <use xlink:href="#DejaVuSansMono-Bold-2d" x="240.820312"/>
       <use xlink:href="#DejaVuSansMono-Bold-30" x="301.025391"/>
       <use xlink:href="#DejaVuSansMono-Bold-31" x="361.230469"/>
      </g>
     </g>
    </g>
    <g id="text_10">
     <!-- Date -->
     <g transform="translate(428.35125 512.82499) scale(0.12 -0.12)">
      <defs>
       <path id="DejaVuSansMono-44" d="M 1363 519 
Q 2159 519 2475 911 
Q 2791 1303 2791 2328 
Q 2791 3363 2477 3755 
Q 2163 4147 1363 4147 
L 1063 4147 
L 1063 519 
L 1363 519 
z
M 1375 4666 
Q 2444 4666 2950 4097 
Q 3456 3528 3456 2328 
Q 3456 1134 2950 567 
Q 2444 0 1375 0 
L 428 0 
L 428 4666 
L 1375 4666 
z
" transform="scale(0.015625)"/>
       <path id="DejaVuSansMono-61" d="M 2194 1759 
L 2003 1759 
Q 1500 1759 1245 1582 
Q 991 1406 991 1056 
Q 991 741 1181 566 
Q 1372 391 1709 391 
Q 2184 391 2456 720 
Q 2728 1050 2731 1631 
L 2731 1759 
L 2194 1759 
z
M 3309 1997 
L 3309 0 
L 2731 0 
L 2731 519 
Q 2547 206 2267 57 
Q 1988 -91 1588 -91 
Q 1053 -91 734 211 
Q 416 513 416 1019 
Q 416 1603 808 1906 
Q 1200 2209 1959 2209 
L 2731 2209 
L 2731 2300 
Q 2728 2719 2518 2908 
Q 2309 3097 1850 3097 
Q 1556 3097 1256 3012 
Q 956 2928 672 2766 
L 672 3341 
Q 991 3463 1283 3523 
Q 1575 3584 1850 3584 
Q 2284 3584 2592 3456 
Q 2900 3328 3091 3072 
Q 3209 2916 3259 2686 
Q 3309 2456 3309 1997 
z
" transform="scale(0.015625)"/>
       <path id="DejaVuSansMono-74" d="M 1919 4494 
L 1919 3500 
L 3225 3500 
L 3225 3053 
L 1919 3053 
L 1919 1153 
Q 1919 766 2066 612 
Q 2213 459 2578 459 
L 3225 459 
L 3225 0 
L 2522 0 
Q 1875 0 1609 259 
Q 1344 519 1344 1153 
L 1344 3053 
L 409 3053 
L 409 3500 
L 1344 3500 
L 1344 4494 
L 1919 4494 
z
" transform="scale(0.015625)"/>
       <path id="DejaVuSansMono-65" d="M 3475 1894 
L 3475 1613 
L 984 1613 
L 984 1594 
Q 984 1022 1282 709 
Q 1581 397 2125 397 
Q 2400 397 2700 484 
Q 3000 572 3341 750 
L 3341 178 
Q 3013 44 2708 -23 
Q 2403 -91 2119 -91 
Q 1303 -91 843 398 
Q 384 888 384 1747 
Q 384 2584 834 3084 
Q 1284 3584 2034 3584 
Q 2703 3584 3089 3131 
Q 3475 2678 3475 1894 
z
M 2900 2063 
Q 2888 2569 2661 2833 
Q 2434 3097 2009 3097 
Q 1594 3097 1325 2822 
Q 1056 2547 1006 2059 
L 2900 2063 
z
" transform="scale(0.015625)"/>
      </defs>
      <use xlink:href="#DejaVuSansMono-44"/>
      <use xlink:href="#DejaVuSansMono-61" x="60.205078"/>
      <use xlink:href="#DejaVuSansMono-74" x="120.410156"/>
      <use xlink:href="#DejaVuSansMono-65" x="180.615234"/>
     </g>
    </g>
   </g>
   <g id="matplotlib.axis_2">
    <g id="ytick_1">
     <g id="line2d_10">
      <defs>
       <path id="m041e63e154" d="M 0 0 
L 3.5 0 
" style="stroke: #0000ff; stroke-width: 0.8"/>
      </defs>
      <g>
       <use xlink:href="#m041e63e154" x="108" y="460.8" style="fill: #0000ff; stroke: #0000ff; stroke-width: 0.8"/>
      </g>
     </g>
     <g id="text_11">
      <!-- 600 -->
      <g style="fill: #0000ff" transform="translate(82.826875 465.359062) scale(0.12 -0.12)">
       <defs>
        <path id="DejaVuSansMono-Bold-36" d="M 2009 2338 
Q 1709 2338 1551 2120 
Q 1394 1903 1394 1491 
Q 1394 1081 1551 864 
Q 1709 647 2009 647 
Q 2309 647 2470 864 
Q 2631 1081 2631 1491 
Q 2631 1900 2470 2119 
Q 2309 2338 2009 2338 
z
M 3219 4556 
L 3219 3719 
Q 2972 3859 2745 3929 
Q 2519 4000 2309 4000 
Q 1809 4000 1548 3664 
Q 1288 3328 1275 2672 
Q 1422 2875 1650 2976 
Q 1878 3078 2188 3078 
Q 2819 3078 3162 2679 
Q 3506 2281 3506 1550 
Q 3506 766 3120 334 
Q 2734 -97 2034 -97 
Q 1181 -97 795 475 
Q 409 1047 409 2322 
Q 409 3534 881 4139 
Q 1353 4744 2297 4744 
Q 2516 4744 2748 4697 
Q 2981 4650 3219 4556 
z
" transform="scale(0.015625)"/>
       </defs>
       <use xlink:href="#DejaVuSansMono-Bold-36"/>
       <use xlink:href="#DejaVuSansMono-Bold-30" x="60.205078"/>
       <use xlink:href="#DejaVuSansMono-Bold-30" x="120.410156"/>
      </g>
     </g>
    </g>
    <g id="ytick_2">
     <g id="line2d_11">
      <g>
       <use xlink:href="#m041e63e154" x="108" y="395.52" style="fill: #0000ff; stroke: #0000ff; stroke-width: 0.8"/>
      </g>
     </g>
     <g id="text_12">
      <!-- 800 -->
      <g style="fill: #0000ff" transform="translate(82.826875 400.079062) scale(0.12 -0.12)">
       <use xlink:href="#DejaVuSansMono-Bold-38"/>
       <use xlink:href="#DejaVuSansMono-Bold-30" x="60.205078"/>
       <use xlink:href="#DejaVuSansMono-Bold-30" x="120.410156"/>
      </g>
     </g>
    </g>
    <g id="ytick_3">
     <g id="line2d_12">
      <g>
       <use xlink:href="#m041e63e154" x="108" y="330.24" style="fill: #0000ff; stroke: #0000ff; stroke-width: 0.8"/>
      </g>
     </g>
     <g id="text_13">
      <!-- 1000 -->
      <g style="fill: #0000ff" transform="translate(75.6025 334.799062) scale(0.12 -0.12)">
       <use xlink:href="#DejaVuSansMono-Bold-31"/>
       <use xlink:href="#DejaVuSansMono-Bold-30" x="60.205078"/>
       <use xlink:href="#DejaVuSansMono-Bold-30" x="120.410156"/>
       <use xlink:href="#DejaVuSansMono-Bold-30" x="180.615234"/>
      </g>
     </g>
    </g>
    <g id="ytick_4">
     <g id="line2d_13">
      <g>
       <use xlink:href="#m041e63e154" x="108" y="264.96" style="fill: #0000ff; stroke: #0000ff; stroke-width: 0.8"/>
      </g>
     </g>
     <g id="text_14">
      <!-- 1200 -->
      <g style="fill: #0000ff" transform="translate(75.6025 269.519062) scale(0.12 -0.12)">
       <use xlink:href="#DejaVuSansMono-Bold-31"/>
       <use xlink:href="#DejaVuSansMono-Bold-32" x="60.205078"/>
       <use xlink:href="#DejaVuSansMono-Bold-30" x="120.410156"/>
       <use xlink:href="#DejaVuSansMono-Bold-30" x="180.615234"/>
      </g>
     </g>
    </g>
    <g id="ytick_5">
     <g id="line2d_14">
      <g>
       <use xlink:href="#m041e63e154" x="108" y="199.68" style="fill: #0000ff; stroke: #0000ff; stroke-width: 0.8"/>
      </g>
     </g>
     <g id="text_15">
      <!-- 1400 -->
      <g style="fill: #0000ff" transform="translate(75.6025 204.239062) scale(0.12 -0.12)">
       <defs>
        <path id="DejaVuSansMono-Bold-34" d="M 2169 3641 
L 991 1797 
L 2169 1797 
L 2169 3641 
z
M 2088 4666 
L 3053 4666 
L 3053 1797 
L 3566 1797 
L 3566 1006 
L 3053 1006 
L 3053 0 
L 2169 0 
L 2169 1006 
L 319 1006 
L 319 1900 
L 2088 4666 
z
" transform="scale(0.015625)"/>
       </defs>
       <use xlink:href="#DejaVuSansMono-Bold-31"/>
       <use xlink:href="#DejaVuSansMono-Bold-34" x="60.205078"/>
       <use xlink:href="#DejaVuSansMono-Bold-30" x="120.410156"/>
       <use xlink:href="#DejaVuSansMono-Bold-30" x="180.615234"/>
      </g>
     </g>
    </g>
    <g id="ytick_6">
     <g id="line2d_15">
      <g>
       <use xlink:href="#m041e63e154" x="108" y="134.4" style="fill: #0000ff; stroke: #0000ff; stroke-width: 0.8"/>
      </g>
     </g>
     <g id="text_16">
      <!-- 1600 -->
      <g style="fill: #0000ff" transform="translate(75.6025 138.959063) scale(0.12 -0.12)">
       <use xlink:href="#DejaVuSansMono-Bold-31"/>
       <use xlink:href="#DejaVuSansMono-Bold-36" x="60.205078"/>
       <use xlink:href="#DejaVuSansMono-Bold-30" x="120.410156"/>
       <use xlink:href="#DejaVuSansMono-Bold-30" x="180.615234"/>
      </g>
     </g>
    </g>
    <g id="ytick_7">
     <g id="line2d_16">
      <g>
       <use xlink:href="#m041e63e154" x="108" y="69.12" style="fill: #0000ff; stroke: #0000ff; stroke-width: 0.8"/>
      </g>
     </g>
     <g id="text_17">
      <!-- 1800 -->
      <g style="fill: #0000ff" transform="translate(75.6025 73.679062) scale(0.12 -0.12)">
       <use xlink:href="#DejaVuSansMono-Bold-31"/>
       <use xlink:href="#DejaVuSansMono-Bold-38" x="60.205078"/>
       <use xlink:href="#DejaVuSansMono-Bold-30" x="120.410156"/>
       <use xlink:href="#DejaVuSansMono-Bold-30" x="180.615234"/>
      </g>
     </g>
    </g>
   </g>
   <g id="line2d_17">
    <path d="M 106.625051 193.70688 
L 108.916632 194.26176 
L 109.374949 193.693824 
L 109.833265 196.510656 
L 111.208214 195.489024 
L 111.66653 195.727296 
L 112.124846 194.83296 
L 113.041478 189.649728 
L 114.874743 189.26784 
L 115.33306 189.685632 
L 115.791376 191.072832 
L 116.249692 189.7248 
L 117.624641 192.18912 
L 118.082957 190.544064 
L 118.541273 186.581568 
L 118.999589 191.87904 
L 119.457906 192.440448 
L 120.832854 192.949632 
L 122.207803 184.685184 
L 122.666119 183.885504 
L 124.041068 184.342464 
L 124.499384 184.0128 
L 124.9577 183.353472 
L 125.416016 183.911616 
L 125.874333 187.257216 
L 127.249281 188.788032 
L 128.165914 181.63008 
L 128.62423 181.137216 
L 129.082546 181.551744 
L 130.915811 180.200448 
L 131.374127 180.869568 
L 131.832444 181.277568 
L 132.29076 182.971584 
L 133.665708 183.565632 
L 134.124025 199.993344 
L 134.582341 197.453952 
L 135.040657 198.645312 
L 135.498973 203.867712 
L 136.873922 208.127232 
L 137.332238 201.178176 
L 137.790554 202.300992 
L 138.248871 199.063104 
L 138.707187 198.753024 
L 140.082136 197.52576 
L 140.540452 206.87712 
L 140.998768 203.867712 
L 141.457084 202.199808 
L 141.9154 203.93952 
L 143.290349 199.007616 
L 143.748665 196.109184 
L 144.206982 188.242944 
L 144.665298 188.406144 
L 145.123614 187.893696 
L 146.498563 187.44 
L 146.956879 190.341696 
L 147.415195 194.056128 
L 147.873511 192.326208 
L 148.331828 192.871296 
L 149.706776 191.66688 
L 150.165092 187.351872 
L 150.623409 186.829632 
L 151.081725 185.396736 
L 152.91499 185.119296 
L 153.373306 183.885504 
L 153.831622 186.992832 
L 154.289938 184.07808 
L 156.123203 177.377088 
L 156.58152 176.348928 
L 157.039836 176.016 
L 157.498152 176.593728 
L 157.956468 172.14816 
L 159.331417 173.264448 
L 159.789733 173.434176 
L 160.248049 168.534912 
L 160.706366 168.9168 
L 161.164682 168.975552 
L 162.53963 172.794432 
L 162.997947 171.51168 
L 163.456263 168.371712 
L 163.914579 166.259904 
L 164.372895 165.205632 
L 165.747844 163.945728 
L 166.20616 164.520192 
L 166.664476 162.933888 
L 167.122793 169.824192 
L 167.581109 165.13056 
L 168.956057 166.01184 
L 169.414374 166.651584 
L 169.87269 162.424704 
L 170.331006 162.8784 
L 170.789322 159.6144 
L 172.164271 158.84736 
L 172.622587 159.167232 
L 173.080903 159.767808 
L 173.53922 164.588736 
L 173.997536 161.905728 
L 175.830801 161.128896 
L 176.289117 157.172928 
L 176.747433 157.045632 
L 177.205749 155.178624 
L 178.580698 154.251648 
L 179.039014 156.93792 
L 179.497331 161.367168 
L 179.955647 170.068992 
L 180.413963 164.536512 
L 181.788912 164.063232 
L 182.247228 169.3248 
L 182.705544 161.925312 
L 183.16386 159.542592 
L 183.622177 156.298176 
L 184.997125 156.90528 
L 185.455441 156.04032 
L 185.913758 162.849024 
L 186.372074 159.797184 
L 186.83039 166.204416 
L 188.205339 167.777664 
L 188.663655 169.360704 
L 189.121971 164.970624 
L 189.580287 165.176256 
L 190.038604 165.94656 
L 191.871869 158.922432 
L 192.788501 158.74944 
L 193.246817 157.104384 
L 194.621766 156.64416 
L 195.080082 163.736832 
L 195.538398 160.916736 
L 195.996715 151.47072 
L 196.455031 149.904 
L 197.829979 150.876672 
L 198.288296 150.925632 
L 198.746612 151.970112 
L 199.204928 149.714688 
L 199.663244 155.90976 
L 201.038193 153.471552 
L 201.496509 163.436544 
L 201.954825 161.135424 
L 202.413142 172.699776 
L 202.871458 180.43872 
L 204.246407 175.555776 
L 204.704723 181.639872 
L 205.163039 178.199616 
L 205.621355 176.11392 
L 206.079671 188.889216 
L 207.912936 174.641856 
L 208.371253 167.859264 
L 208.829569 182.351424 
L 209.287885 182.171904 
L 210.662834 182.406912 
L 211.12115 191.017344 
L 211.579466 197.49312 
L 212.037782 196.001472 
L 212.496099 184.685184 
L 213.871047 184.81248 
L 214.329363 184.300032 
L 214.78768 178.767552 
L 215.245996 179.28 
L 215.704312 173.773632 
L 217.079261 177.879744 
L 217.537577 189.117696 
L 217.995893 178.868736 
L 218.454209 180.866304 
L 218.912526 175.529664 
L 220.745791 170.493312 
L 221.204107 176.084544 
L 221.662423 174.04128 
L 222.120739 182.20128 
L 223.495688 182.80512 
L 223.954004 176.345664 
L 224.41232 176.322816 
L 224.870637 172.27872 
L 225.328953 172.1808 
L 226.703901 174.66144 
L 227.162218 160.583808 
L 227.620534 157.564608 
L 228.07885 160.92 
L 228.537166 158.6352 
L 229.912115 161.252928 
L 230.370431 161.422656 
L 230.828747 158.742912 
L 231.287064 156.797568 
L 231.74538 158.3088 
L 233.120329 151.686144 
L 233.578645 151.819968 
L 234.036961 154.117824 
L 234.495277 153.057024 
L 234.953593 148.242624 
L 236.328542 149.877888 
L 236.786858 145.77504 
L 237.245175 146.649792 
L 237.703491 149.280576 
L 238.161807 146.86848 
L 239.536756 151.141056 
L 239.995072 154.463808 
L 240.453388 153.579264 
L 240.911704 153.957888 
L 241.370021 166.834368 
L 242.744969 164.973888 
L 243.203285 160.645824 
L 243.661602 161.856768 
L 244.119918 162.33984 
L 244.578234 155.524608 
L 245.953183 153.664128 
L 246.411499 156.915072 
L 246.869815 150.922368 
L 247.328131 164.285184 
L 247.786448 163.89024 
L 249.161396 166.331712 
L 249.619713 160.423872 
L 250.078029 174.997632 
L 250.536345 175.275072 
L 250.994661 182.15232 
L 252.36961 186.891648 
L 252.827926 173.22528 
L 253.286242 176.642688 
L 253.744559 182.98464 
L 254.202875 180.507264 
L 255.577823 188.820672 
L 256.03614 186.72192 
L 256.494456 194.206272 
L 257.411088 186.39552 
L 258.786037 197.323392 
L 259.244353 190.465728 
L 259.702669 177.151872 
L 260.160986 176.923392 
L 260.619302 173.195904 
L 261.994251 176.042112 
L 262.452567 179.185344 
L 263.369199 164.644224 
L 263.827515 165.518976 
L 265.202464 161.830656 
L 265.66078 174.33504 
L 266.119097 171.417024 
L 266.577413 170.822976 
L 267.035729 177.50112 
L 268.410678 184.69824 
L 268.868994 181.734528 
L 269.32731 182.3808 
L 269.785626 180.056832 
L 270.243943 172.112256 
L 271.618891 168.19872 
L 272.535524 167.803776 
L 272.99384 174.785472 
L 273.452156 174.060864 
L 274.827105 177.367296 
L 275.743737 184.286976 
L 276.202053 184.286976 
L 276.66037 195.883968 
L 278.035318 194.398848 
L 278.493634 202.881984 
L 278.951951 196.699968 
L 279.410267 193.044288 
L 279.868583 199.347072 
L 281.243532 194.376 
L 281.701848 205.89792 
L 282.160164 208.42752 
L 282.61848 221.4672 
L 283.076797 224.097984 
L 284.910062 228.8928 
L 285.368378 219.72096 
L 285.826694 215.324352 
L 286.28501 222.328896 
L 288.118275 211.98528 
L 288.576591 214.103616 
L 289.034908 206.68128 
L 289.493224 201.174912 
L 290.868172 205.940352 
L 291.326489 220.360704 
L 291.784805 223.68672 
L 292.243121 220.272576 
L 292.701437 222.106944 
L 294.076386 219.547968 
L 294.534702 216.372096 
L 294.993018 210.382656 
L 295.451335 216.372096 
L 295.909651 216.003264 
L 297.742916 216.398208 
L 298.201232 212.726208 
L 298.659548 218.438208 
L 299.117864 214.984896 
L 300.492813 208.88448 
L 300.951129 205.786944 
L 301.409446 206.201472 
L 301.867762 210.229248 
L 302.326078 222.322368 
L 303.701027 222.090624 
L 304.159343 223.5888 
L 304.617659 221.32032 
L 305.075975 230.903424 
L 305.534292 234.484032 
L 306.90924 241.012032 
L 307.367556 225.57984 
L 307.825873 229.457472 
L 308.284189 227.267328 
L 308.742505 236.191104 
L 310.117454 239.95776 
L 310.57577 222.286464 
L 311.034086 232.835712 
L 311.492402 222.687936 
L 313.325667 216.039168 
L 313.783984 215.024064 
L 314.2423 218.895168 
L 314.700616 223.911936 
L 315.158932 227.352192 
L 316.533881 224.91072 
L 316.992197 209.413248 
L 317.450513 210.278208 
L 317.90883 209.697216 
L 318.367146 209.34144 
L 319.742094 208.642944 
L 320.200411 210.927744 
L 320.658727 214.534464 
L 321.117043 212.55648 
L 321.575359 221.604288 
L 322.950308 223.076352 
L 323.408624 221.082048 
L 323.86694 211.198656 
L 324.325257 210.921216 
L 324.783573 202.836288 
L 326.158522 203.541312 
L 326.616838 207.533184 
L 327.075154 206.230848 
L 327.991786 200.385024 
L 329.366735 200.864832 
L 330.283368 204.383424 
L 330.741684 196.631424 
L 331.2 195.14304 
L 332.574949 197.235264 
L 333.033265 193.719936 
L 333.491581 202.105152 
L 333.949897 200.437248 
L 334.408214 203.505408 
L 335.783162 198.511488 
L 336.241478 198.687744 
L 336.699795 196.853376 
L 337.158111 191.986752 
L 337.616427 191.40576 
L 338.991376 190.987968 
L 339.449692 195.30624 
L 339.908008 202.712256 
L 340.366324 201.52416 
L 340.824641 207.536448 
L 342.657906 204.46176 
L 343.116222 202.669824 
L 343.574538 200.247936 
L 344.032854 199.555968 
L 345.407803 204.357312 
L 345.866119 206.97504 
L 346.324435 207.12192 
L 346.782752 198.35808 
L 347.241068 212.514048 
L 348.616016 212.161536 
L 349.074333 213.245184 
L 349.532649 220.736064 
L 349.990965 219.306432 
L 350.449281 212.726208 
L 351.82423 212.690304 
L 352.282546 215.696448 
L 352.740862 219.978816 
L 353.199179 218.340288 
L 353.657495 226.467648 
L 355.032444 226.4448 
L 355.49076 227.655744 
L 355.949076 225.148992 
L 356.407392 237.81984 
L 356.865708 239.376768 
L 358.240657 238.848 
L 358.698973 237.245376 
L 359.15729 244.879872 
L 359.615606 244.42944 
L 361.448871 247.886016 
L 361.907187 240.90432 
L 362.365503 250.373184 
L 362.823819 247.533504 
L 363.282136 252.070464 
L 364.657084 255.72288 
L 365.1154 260.093376 
L 365.573717 250.154496 
L 366.032033 245.271552 
L 366.490349 245.154048 
L 367.865298 245.376 
L 368.323614 239.8272 
L 368.78193 238.133184 
L 369.240246 247.810944 
L 369.698563 246.107136 
L 371.073511 253.741632 
L 371.531828 244.33152 
L 371.990144 237.457536 
L 372.44846 242.967168 
L 372.906776 245.274816 
L 374.281725 248.963136 
L 374.740041 237.255168 
L 375.198357 235.848384 
L 375.656674 243.394752 
L 376.11499 233.521152 
L 377.489938 230.583552 
L 377.948255 235.717824 
L 378.406571 236.945088 
L 378.864887 234.627648 
L 379.323203 232.90752 
L 380.698152 239.30496 
L 381.156468 243.192384 
L 381.614784 240.630144 
L 382.073101 239.592192 
L 382.531417 234.86592 
L 383.906366 243.143424 
L 384.364682 241.619136 
L 384.822998 238.306176 
L 385.281314 232.098048 
L 385.73963 237.924288 
L 387.572895 239.637888 
L 388.031211 240.486528 
L 388.489528 252.938688 
L 388.947844 251.150016 
L 390.322793 242.833344 
L 390.781109 256.959936 
L 391.239425 254.502144 
L 391.697741 248.95008 
L 392.156057 248.08512 
L 393.531006 267.34272 
L 393.989322 260.52096 
L 394.447639 279.194304 
L 395.364271 246.981888 
L 397.197536 268.804992 
L 397.655852 269.572032 
L 398.114168 261.963648 
L 398.572485 260.628672 
L 399.947433 295.504512 
L 400.405749 275.940096 
L 400.864066 277.670016 
L 401.322382 292.939008 
L 403.155647 311.671104 
L 403.613963 331.470528 
L 404.072279 335.155584 
L 404.530595 359.642112 
L 404.988912 363.134592 
L 406.36386 329.14656 
L 406.822177 330.889536 
L 407.280493 360.321024 
L 407.738809 347.725248 
L 408.197125 349.64448 
L 409.572074 335.00544 
L 410.03039 344.91168 
L 410.488706 363.931008 
L 410.947023 360.232896 
L 411.405339 370.462272 
L 412.780287 379.552512 
L 413.238604 349.657536 
L 413.69692 353.058624 
L 414.155236 345.225024 
L 414.613552 340.44 
L 415.988501 341.23968 
L 416.446817 328.3632 
L 417.36345 361.287168 
L 417.821766 352.764864 
L 419.196715 356.609856 
L 419.655031 363.22272 
L 420.113347 378.44928 
L 420.571663 359.194944 
L 421.029979 371.598144 
L 422.404928 378.9552 
L 422.863244 376.223232 
L 423.779877 411.043584 
L 424.238193 395.510208 
L 425.613142 378.609216 
L 426.071458 376.787904 
L 426.529774 366.901248 
L 427.446407 364.107264 
L 428.821355 390.229056 
L 429.279671 379.588416 
L 429.737988 372.430464 
L 430.196304 380.760192 
L 430.65462 370.690752 
L 432.029569 359.71392 
L 432.487885 366.578112 
L 432.946201 363.128064 
L 433.404517 371.500224 
L 433.862834 369.496128 
L 435.237782 373.138752 
L 435.696099 358.578048 
L 436.154415 361.437312 
L 436.612731 367.684608 
L 437.071047 366.835968 
L 438.445996 372.139968 
L 438.904312 374.904576 
L 439.362628 373.27584 
L 440.279261 371.75808 
L 441.654209 372.861312 
L 442.112526 365.935104 
L 442.570842 361.8192 
L 443.487474 352.50048 
L 444.862423 353.92032 
L 445.320739 351.55392 
L 445.779055 360.70944 
L 446.237372 359.704128 
L 446.695688 366.02976 
L 448.070637 372.587136 
L 448.528953 372.087744 
L 448.987269 381.608832 
L 449.445585 381.243264 
L 449.903901 379.160832 
L 451.737166 393.816192 
L 452.195483 382.385664 
L 452.653799 386.544 
L 453.112115 385.09152 
L 454.487064 383.583552 
L 454.94538 380.600256 
L 455.403696 371.337024 
L 455.862012 380.786304 
L 456.320329 387.072768 
L 457.695277 387.216384 
L 458.153593 382.950336 
L 458.61191 385.000128 
L 459.070226 380.55456 
L 459.528542 373.12896 
L 460.903491 372.707904 
L 461.361807 386.654976 
L 461.820123 384.507264 
L 462.278439 384.033984 
L 462.736756 386.759424 
L 464.570021 399.054912 
L 465.028337 399.299712 
L 467.319918 414.017088 
L 467.778234 404.287104 
L 468.23655 406.97664 
L 468.694867 410.916288 
L 469.153183 416.706624 
L 470.528131 427.892352 
L 470.986448 429.357888 
L 471.444764 423.959232 
L 471.90308 433.85568 
L 472.361396 433.584768 
L 473.736345 435.820608 
L 474.194661 421.76256 
L 474.652977 421.188096 
L 475.111294 411.598464 
L 475.56961 409.70208 
L 476.944559 410.570304 
L 477.402875 402.661632 
L 477.861191 397.36416 
L 478.319507 400.729344 
L 478.777823 405.788544 
L 480.152772 388.038912 
L 480.611088 393.522432 
L 481.069405 390.989568 
L 481.527721 384.794496 
L 481.986037 390.317184 
L 483.360986 399.590208 
L 483.819302 396.215232 
L 484.277618 391.903488 
L 484.735934 384.298368 
L 485.194251 381.648 
L 486.569199 383.939328 
L 487.027515 390.44448 
L 487.485832 387.307776 
L 487.944148 377.058816 
L 489.777413 376.350528 
L 490.235729 381.9744 
L 490.694045 378.527616 
L 491.152361 374.20608 
L 491.610678 372.80256 
L 492.985626 384.947904 
L 493.443943 379.173888 
L 493.902259 381.30528 
L 494.360575 378.573312 
L 494.818891 373.902528 
L 496.652156 377.515776 
L 497.110472 371.483904 
L 497.568789 371.754816 
L 498.027105 370.217472 
L 499.402053 360.516864 
L 499.86037 361.63968 
L 500.318686 356.505408 
L 500.777002 360.467904 
L 501.235318 353.339328 
L 502.610267 359.864064 
L 503.068583 360.15456 
L 503.526899 368.128512 
L 503.985216 365.141952 
L 504.443532 368.467968 
L 505.81848 359.710656 
L 506.276797 360.226368 
L 506.735113 361.747392 
L 507.193429 366.689088 
L 507.651745 367.1232 
L 509.48501 359.508288 
L 509.943326 365.145216 
L 510.859959 356.632704 
L 512.234908 348.887232 
L 512.693224 348.276864 
L 513.15154 352.513536 
L 513.609856 349.021056 
L 514.068172 349.794624 
L 515.443121 350.104704 
L 515.901437 349.030848 
L 516.359754 350.10144 
L 516.81807 348.227904 
L 517.276386 347.797056 
L 518.651335 355.137792 
L 519.109651 358.972992 
L 519.567967 359.384256 
L 520.026283 356.884032 
L 520.4846 355.950528 
L 521.859548 365.151744 
L 522.317864 364.47936 
L 522.776181 362.573184 
L 523.234497 356.267136 
L 523.692813 356.71104 
L 525.067762 353.992128 
L 525.526078 356.573952 
L 525.984394 355.265088 
L 526.44271 364.048512 
L 528.275975 363.297792 
L 528.734292 369.071808 
L 529.192608 369.551616 
L 529.650924 368.533248 
L 530.10924 369.691968 
L 531.484189 362.53728 
L 531.942505 360.973824 
L 532.400821 352.213248 
L 532.859138 349.582464 
L 533.317454 349.699968 
L 535.150719 345.065088 
L 535.609035 345.231552 
L 536.067351 337.978944 
L 536.525667 337.009536 
L 537.900616 336.056448 
L 538.358932 336.892032 
L 538.817248 338.35104 
L 539.275565 334.5648 
L 539.733881 334.326528 
L 541.10883 329.381568 
L 541.567146 328.39584 
L 542.025462 329.352192 
L 542.483778 331.193088 
L 542.942094 326.819328 
L 544.317043 327.92256 
L 544.775359 332.08416 
L 545.233676 328.343616 
L 545.691992 326.084928 
L 547.525257 336.856128 
L 547.983573 333.611712 
L 548.441889 331.395456 
L 548.900205 327.834432 
L 549.358522 321.711168 
L 550.73347 321.893952 
L 551.191786 321.1008 
L 551.650103 321.061632 
L 552.108419 320.128128 
L 552.566735 320.797248 
L 553.941684 323.509632 
L 554.4 330.879744 
L 554.858316 331.9536 
L 555.316632 329.182464 
L 555.774949 324.88704 
L 557.608214 321.952704 
L 558.06653 319.348032 
L 558.524846 315.832704 
L 558.983162 316.292928 
L 560.358111 314.135424 
L 560.816427 313.061568 
L 561.274743 307.796736 
L 561.73306 308.864064 
L 562.191376 307.94688 
L 563.566324 309.134976 
L 564.024641 306.850176 
L 564.941273 313.665408 
L 565.399589 315.754368 
L 566.774538 309.683328 
L 567.232854 310.456896 
L 567.69117 311.609088 
L 568.149487 320.49696 
L 568.607803 322.011456 
L 569.982752 317.033856 
L 570.441068 312.379392 
L 570.899384 311.445888 
L 571.816016 306.905664 
L 573.190965 305.371584 
L 573.649281 306.350784 
L 574.107598 300.204672 
L 574.565914 298.722816 
L 575.02423 301.621248 
L 576.399179 298.282176 
L 576.857495 300.518016 
L 577.315811 303.67104 
L 577.774127 299.914176 
L 578.232444 304.25856 
L 580.065708 309.542976 
L 580.524025 316.325568 
L 580.982341 308.661696 
L 581.440657 318.427584 
L 583.273922 315.418176 
L 583.732238 315.0624 
L 584.190554 308.491968 
L 584.648871 307.62048 
L 586.023819 299.858688 
L 586.482136 299.881536 
L 586.940452 298.086336 
L 587.398768 301.764864 
L 587.857084 299.728128 
L 589.232033 294.56448 
L 589.690349 294.231552 
L 590.148665 294.40128 
L 590.606982 299.26464 
L 591.065298 300.413568 
L 592.440246 295.563264 
L 592.898563 295.75584 
L 593.356879 294.130368 
L 594.273511 300.377664 
L 595.64846 299.026368 
L 596.106776 294.708096 
L 596.565092 294.584064 
L 597.023409 297.626112 
L 597.481725 295.648128 
L 598.856674 296.5392 
L 599.31499 300.230784 
L 599.773306 298.92192 
L 600.231622 296.83296 
L 600.689938 295.507776 
L 602.064887 292.994496 
L 602.523203 295.011648 
L 602.98152 294.603648 
L 603.439836 298.879488 
L 603.898152 296.793792 
L 605.731417 291.718272 
L 606.189733 290.879424 
L 606.648049 288.956928 
L 608.481314 288.532608 
L 608.93963 289.04832 
L 609.397947 288.976512 
L 609.856263 292.67136 
L 612.147844 285.679872 
L 612.60616 285.477504 
L 613.064476 283.992384 
L 613.522793 282.918528 
L 614.897741 282.265728 
L 615.356057 285.777792 
L 615.814374 282.690048 
L 616.27269 281.782656 
L 616.731006 285.839808 
L 618.564271 281.204928 
L 619.022587 285.183744 
L 619.93922 300.289536 
L 621.314168 298.651008 
L 621.772485 300.155712 
L 622.230801 298.416 
L 623.147433 306.128832 
L 624.522382 301.128384 
L 624.980698 296.516352 
L 625.439014 298.487808 
L 625.897331 309.640896 
L 626.355647 308.635584 
L 627.730595 311.720064 
L 628.188912 307.222272 
L 628.647228 308.002368 
L 629.105544 304.627392 
L 629.56386 305.593536 
L 631.855441 297.759936 
L 632.313758 295.3968 
L 632.772074 294.606912 
L 634.147023 294.985536 
L 634.605339 299.36256 
L 635.063655 295.889664 
L 635.521971 296.640384 
L 635.980287 296.134464 
L 637.355236 292.472256 
L 637.813552 291.623616 
L 638.271869 291.466944 
L 638.730185 290.102592 
L 639.188501 284.96832 
L 640.56345 285.0336 
L 641.021766 284.39712 
L 641.938398 281.201664 
L 642.396715 281.283264 
L 643.771663 281.113536 
L 644.229979 278.192256 
L 644.688296 275.989056 
L 645.146612 276.113088 
L 645.604928 278.04864 
L 646.979877 276.119616 
L 647.438193 273.390912 
L 647.896509 275.496192 
L 648.354825 276.145728 
L 648.813142 275.865024 
L 650.18809 273.700992 
L 650.646407 273.684672 
L 651.104723 274.938048 
L 651.563039 272.10816 
L 653.85462 268.406784 
L 654.312936 270.68832 
L 654.771253 269.385984 
L 655.229569 266.797632 
L 657.062834 265.84128 
L 657.52115 261.48384 
L 657.979466 261.150912 
L 658.437782 267.528768 
L 659.812731 265.769472 
L 660.271047 262.619712 
L 660.729363 263.021184 
L 661.18768 262.130112 
L 661.645996 259.319808 
L 663.020945 261.02688 
L 663.479261 270.277056 
L 663.937577 267.780096 
L 664.395893 262.747008 
L 664.854209 269.304384 
L 666.229158 264.222336 
L 666.687474 273.57696 
L 667.145791 276.100032 
L 667.604107 288.41184 
L 668.062423 294.048768 
L 669.437372 278.104128 
L 669.895688 279.390144 
L 670.354004 274.206912 
L 670.81232 278.851584 
L 671.270637 285.954048 
L 672.645585 285.542784 
L 673.103901 290.81088 
L 673.562218 292.68768 
L 674.020534 306.873024 
L 674.47885 301.617984 
L 675.853799 306.20064 
L 676.312115 306.076608 
L 676.770431 308.06112 
L 677.228747 296.601216 
L 677.687064 301.056576 
L 679.520329 307.160256 
L 679.978645 298.128768 
L 680.436961 296.676288 
L 680.895277 309.063168 
L 682.270226 313.766592 
L 682.728542 310.0032 
L 683.186858 312.062784 
L 683.645175 301.895424 
L 684.103491 300.34176 
L 685.478439 300.984768 
L 685.936756 292.628928 
L 686.395072 292.831296 
L 687.311704 291.884736 
L 688.686653 293.29152 
L 689.144969 299.130816 
L 689.603285 300.198144 
L 690.061602 306.187584 
L 690.519918 305.185536 
L 691.894867 305.900352 
L 692.353183 316.779264 
L 692.811499 320.216256 
L 693.269815 321.306432 
L 693.728131 322.869888 
L 695.561396 321.081216 
L 696.019713 310.567872 
L 696.936345 304.793856 
L 698.311294 304.536 
L 698.76961 299.121024 
L 699.227926 299.176512 
L 699.686242 298.748928 
L 700.144559 309.063168 
L 701.519507 306.984 
L 701.977823 302.992128 
L 702.43614 307.525824 
L 702.894456 299.666112 
L 703.352772 296.731776 
L 704.727721 292.700736 
L 705.186037 293.082624 
L 705.644353 295.599168 
L 706.102669 297.100608 
L 706.560986 297.07776 
L 707.935934 289.159296 
L 708.394251 290.921856 
L 708.852567 288.708864 
L 709.310883 289.175616 
L 709.769199 290.536704 
L 711.144148 288.529344 
L 711.602464 290.726016 
L 712.06078 301.036992 
L 712.519097 302.949696 
L 712.977413 304.3728 
L 714.352361 304.330368 
L 714.810678 300.034944 
L 715.268994 299.506176 
L 715.72731 305.554368 
L 716.185626 306.840384 
L 717.560575 308.253696 
L 718.018891 313.309632 
L 718.477207 312.180288 
L 718.935524 314.827392 
L 719.39384 309.157824 
L 720.768789 314.272512 
L 721.227105 314.138688 
L 721.685421 304.033344 
L 722.143737 300.83136 
L 722.602053 296.127936 
L 724.435318 300.263424 
L 725.351951 296.235648 
L 725.810267 294.48288 
L 727.185216 290.45184 
L 727.643532 290.71296 
L 728.101848 289.417152 
L 728.560164 289.550976 
L 729.01848 289.247424 
L 730.393429 283.659456 
L 730.851745 284.615808 
L 731.310062 286.411008 
L 731.768378 289.495488 
L 732.226694 281.714112 
L 733.601643 283.838976 
L 734.059959 282.03072 
L 734.976591 284.15232 
L 735.434908 282.507264 
L 736.809856 285.513408 
L 737.268172 277.7712 
L 737.726489 278.025792 
L 738.184805 278.649216 
L 738.643121 276.33504 
L 740.01807 276.279552 
L 740.476386 274.827072 
L 740.934702 272.10816 
L 741.393018 273.508416 
L 741.851335 272.731584 
L 743.226283 269.950656 
L 743.6846 276.09024 
L 744.142916 272.085312 
L 744.601232 271.403136 
L 745.059548 270.482688 
L 746.434497 269.653632 
L 746.892813 269.647104 
L 747.351129 270.68832 
L 747.809446 270.254208 
L 748.267762 270.423936 
L 749.64271 270.058368 
L 750.101027 267.058752 
L 750.559343 265.625856 
L 751.017659 258.086016 
L 751.475975 256.52256 
L 752.850924 257.3712 
L 753.30924 260.58624 
L 753.767556 258.853056 
L 754.225873 260.540544 
L 754.684189 265.217856 
L 756.059138 265.6944 
L 756.517454 272.029824 
L 756.97577 271.948224 
L 757.434086 266.040384 
L 757.892402 265.048128 
L 759.267351 265.665024 
L 759.725667 271.249728 
L 760.183984 265.49856 
L 761.100616 268.41984 
L 762.475565 268.955136 
L 762.933881 271.30848 
L 763.392197 262.978752 
L 763.850513 257.932608 
L 764.30883 256.894656 
L 765.683778 257.413632 
L 766.142094 257.208 
L 767.058727 254.1888 
L 767.517043 251.77344 
L 768.891992 251.753856 
L 769.350308 251.385024 
L 769.808624 253.460928 
L 770.26694 250.967232 
L 772.100205 249.593088 
L 772.558522 247.13856 
L 773.016838 245.754624 
L 773.475154 246.430272 
L 775.308419 246.178944 
L 776.225051 245.447808 
L 776.683368 246.067968 
L 777.141684 246.146304 
L 778.516632 241.501632 
L 778.516632 241.501632 
" clip-path="url(#pc04b32a8e2)" style="fill: none; stroke: #1f77b4; stroke-width: 1.5; stroke-linecap: square"/>
   </g>
   <g id="patch_3">
    <path d="M 108 460.8 
L 108 69.12 
" style="fill: none; stroke: #000000; stroke-width: 0.8; stroke-linejoin: miter; stroke-linecap: square"/>
   </g>
   <g id="patch_4">
    <path d="M 777.6 460.8 
L 777.6 69.12 
" style="fill: none; stroke: #000000; stroke-width: 0.8; stroke-linejoin: miter; stroke-linecap: square"/>
   </g>
   <g id="patch_5">
    <path d="M 108 460.8 
L 777.6 460.8 
" style="fill: none; stroke: #000000; stroke-width: 0.8; stroke-linejoin: miter; stroke-linecap: square"/>
   </g>
   <g id="patch_6">
    <path d="M 108 69.12 
L 777.6 69.12 
" style="fill: none; stroke: #000000; stroke-width: 0.8; stroke-linejoin: miter; stroke-linecap: square"/>
   </g>
   <g id="patch_7">
    <path d="M 238.703491 81.291979 
Q 238.703491 101.309366 238.703491 121.326754 
L 242.703491 121.326754 
Q 240.203491 126.327665 237.703491 131.328576 
Q 235.203491 126.327665 232.703491 121.326754 
L 236.703491 121.326754 
Q 236.703491 101.309366 236.703491 81.291979 
L 238.703491 81.291979 
z
" style="stroke: #000000; stroke-linecap: round"/>
   </g>
   <g id="text_18">
    <!-- Peak of bull market -->
    <g transform="translate(237.703491 76.798701) scale(0.12 -0.12)">
     <defs>
      <path id="DejaVuSansMono-Bold-50" d="M 1428 3891 
L 1428 2522 
L 1806 2522 
Q 2259 2522 2442 2675 
Q 2625 2828 2625 3206 
Q 2625 3584 2442 3737 
Q 2259 3891 1806 3891 
L 1428 3891 
z
M 506 4666 
L 1772 4666 
Q 2738 4666 3161 4322 
Q 3584 3978 3584 3206 
Q 3584 2434 3161 2090 
Q 2738 1747 1772 1747 
L 1428 1747 
L 1428 0 
L 506 0 
L 506 4666 
z
" transform="scale(0.015625)"/>
      <path id="DejaVuSansMono-Bold-65" d="M 3444 172 
Q 3125 41 2794 -25 
Q 2463 -91 2094 -91 
Q 1216 -91 752 379 
Q 288 850 288 1734 
Q 288 2591 734 3087 
Q 1181 3584 1953 3584 
Q 2731 3584 3161 3123 
Q 3591 2663 3591 1825 
L 3591 1453 
L 1219 1453 
Q 1222 1041 1462 837 
Q 1703 634 2181 634 
Q 2497 634 2803 725 
Q 3109 816 3444 1013 
L 3444 172 
z
M 2669 2141 
Q 2663 2503 2483 2689 
Q 2303 2875 1953 2875 
Q 1638 2875 1450 2683 
Q 1263 2491 1228 2138 
L 2669 2141 
z
" transform="scale(0.015625)"/>
      <path id="DejaVuSansMono-Bold-61" d="M 2188 1644 
Q 1675 1644 1472 1512 
Q 1269 1381 1269 1063 
Q 1269 825 1409 684 
Q 1550 544 1791 544 
Q 2153 544 2353 817 
Q 2553 1091 2553 1581 
L 2553 1644 
L 2188 1644 
z
M 3463 1997 
L 3463 0 
L 2553 0 
L 2553 391 
Q 2388 159 2128 34 
Q 1869 -91 1556 -91 
Q 959 -91 626 225 
Q 294 541 294 1106 
Q 294 1719 691 2011 
Q 1088 2303 1919 2303 
L 2553 2303 
L 2553 2456 
Q 2553 2678 2392 2792 
Q 2231 2906 1919 2906 
Q 1591 2906 1283 2823 
Q 975 2741 641 2559 
L 641 3341 
Q 944 3466 1256 3525 
Q 1569 3584 1919 3584 
Q 2772 3584 3117 3237 
Q 3463 2891 3463 1997 
z
" transform="scale(0.015625)"/>
      <path id="DejaVuSansMono-Bold-6b" d="M 544 4863 
L 1459 4863 
L 1459 2309 
L 2559 3500 
L 3669 3500 
L 2344 2194 
L 3744 0 
L 2731 0 
L 1772 1638 
L 1459 1338 
L 1459 0 
L 544 0 
L 544 4863 
z
" transform="scale(0.015625)"/>
      <path id="DejaVuSansMono-Bold-20" transform="scale(0.015625)"/>
      <path id="DejaVuSansMono-Bold-6f" d="M 1925 2841 
Q 1597 2841 1409 2552 
Q 1222 2263 1222 1747 
Q 1222 1231 1409 942 
Q 1597 653 1925 653 
Q 2256 653 2443 942 
Q 2631 1231 2631 1747 
Q 2631 2263 2443 2552 
Q 2256 2841 1925 2841 
z
M 306 1747 
Q 306 2594 745 3089 
Q 1184 3584 1925 3584 
Q 2669 3584 3108 3089 
Q 3547 2594 3547 1747 
Q 3547 900 3108 404 
Q 2669 -91 1925 -91 
Q 1184 -91 745 404 
Q 306 900 306 1747 
z
" transform="scale(0.015625)"/>
      <path id="DejaVuSansMono-Bold-66" d="M 2309 3806 
L 2309 3500 
L 3384 3500 
L 3384 2797 
L 2309 2797 
L 2309 0 
L 1394 0 
L 1394 2797 
L 544 2797 
L 544 3500 
L 1394 3500 
L 1394 3744 
Q 1394 4375 1656 4619 
Q 1919 4863 2631 4863 
L 3384 4863 
L 3384 4159 
L 2669 4159 
Q 2463 4159 2389 4084 
Q 2316 4009 2309 3806 
z
" transform="scale(0.015625)"/>
      <path id="DejaVuSansMono-Bold-62" d="M 2656 1741 
Q 2656 2247 2487 2534 
Q 2319 2822 2022 2822 
Q 1725 2822 1553 2534 
Q 1381 2247 1381 1741 
Q 1381 1234 1553 946 
Q 1725 659 2022 659 
Q 2319 659 2487 946 
Q 2656 1234 2656 1741 
z
M 1381 3003 
Q 1550 3294 1773 3439 
Q 1997 3584 2278 3584 
Q 2900 3584 3236 3109 
Q 3572 2634 3572 1747 
Q 3572 872 3240 390 
Q 2909 -91 2309 -91 
Q 1994 -91 1759 62 
Q 1525 216 1381 519 
L 1381 0 
L 469 0 
L 469 4863 
L 1381 4863 
L 1381 3003 
z
" transform="scale(0.015625)"/>
      <path id="DejaVuSansMono-Bold-75" d="M 500 1222 
L 500 3500 
L 1416 3500 
L 1416 1363 
Q 1416 984 1522 821 
Q 1628 659 1875 659 
Q 2122 659 2261 878 
Q 2400 1097 2400 1491 
L 2400 3500 
L 3316 3500 
L 3316 0 
L 2400 0 
L 2400 519 
Q 2303 228 2070 68 
Q 1838 -91 1509 -91 
Q 1009 -91 754 240 
Q 500 572 500 1222 
z
" transform="scale(0.015625)"/>
      <path id="DejaVuSansMono-Bold-6c" d="M 1209 1459 
L 1209 4159 
L 281 4159 
L 281 4863 
L 2125 4863 
L 2125 1459 
Q 2125 1047 2253 875 
Q 2381 703 2688 703 
L 3419 703 
L 3419 0 
L 2431 0 
Q 1778 0 1493 337 
Q 1209 675 1209 1459 
z
" transform="scale(0.015625)"/>
      <path id="DejaVuSansMono-Bold-6d" d="M 2156 3150 
Q 2259 3372 2418 3478 
Q 2578 3584 2809 3584 
Q 3263 3584 3436 3271 
Q 3609 2959 3609 1972 
L 3609 0 
L 2859 0 
L 2859 2247 
Q 2859 2638 2800 2769 
Q 2741 2900 2584 2900 
Q 2428 2900 2365 2765 
Q 2303 2631 2303 2247 
L 2303 0 
L 1563 0 
L 1563 2247 
Q 1563 2631 1500 2765 
Q 1438 2900 1281 2900 
Q 1125 2900 1065 2769 
Q 1006 2638 1006 2247 
L 1006 0 
L 256 0 
L 256 3500 
L 922 3500 
L 922 3138 
Q 1000 3344 1172 3464 
Q 1344 3584 1556 3584 
Q 1769 3584 1944 3457 
Q 2119 3331 2156 3150 
z
" transform="scale(0.015625)"/>
      <path id="DejaVuSansMono-Bold-72" d="M 3597 2534 
Q 3447 2672 3245 2740 
Q 3044 2809 2803 2809 
Q 2513 2809 2295 2707 
Q 2078 2606 1959 2413 
Q 1884 2294 1854 2125 
Q 1825 1956 1825 1613 
L 1825 0 
L 909 0 
L 909 3500 
L 1825 3500 
L 1825 2956 
Q 1959 3256 2237 3420 
Q 2516 3584 2888 3584 
Q 3075 3584 3254 3539 
Q 3434 3494 3597 3406 
L 3597 2534 
z
" transform="scale(0.015625)"/>
      <path id="DejaVuSansMono-Bold-74" d="M 2156 4494 
L 2156 3500 
L 3353 3500 
L 3353 2797 
L 2156 2797 
L 2156 1141 
Q 2156 906 2270 804 
Q 2384 703 2650 703 
L 3353 703 
L 3353 0 
L 2584 0 
Q 1797 0 1519 251 
Q 1241 503 1241 1184 
L 1241 2797 
L 347 2797 
L 347 3500 
L 1241 3500 
L 1241 4494 
L 2156 4494 
z
" transform="scale(0.015625)"/>
     </defs>
     <use xlink:href="#DejaVuSansMono-Bold-50"/>
     <use xlink:href="#DejaVuSansMono-Bold-65" x="60.205078"/>
     <use xlink:href="#DejaVuSansMono-Bold-61" x="120.410156"/>
     <use xlink:href="#DejaVuSansMono-Bold-6b" x="180.615234"/>
     <use xlink:href="#DejaVuSansMono-Bold-20" x="240.820312"/>
     <use xlink:href="#DejaVuSansMono-Bold-6f" x="301.025391"/>
     <use xlink:href="#DejaVuSansMono-Bold-66" x="361.230469"/>
     <use xlink:href="#DejaVuSansMono-Bold-20" x="421.435547"/>
     <use xlink:href="#DejaVuSansMono-Bold-62" x="481.640625"/>
     <use xlink:href="#DejaVuSansMono-Bold-75" x="541.845703"/>
     <use xlink:href="#DejaVuSansMono-Bold-6c" x="602.050781"/>
     <use xlink:href="#DejaVuSansMono-Bold-6c" x="662.255859"/>
     <use xlink:href="#DejaVuSansMono-Bold-20" x="722.460938"/>
     <use xlink:href="#DejaVuSansMono-Bold-6d" x="782.666016"/>
     <use xlink:href="#DejaVuSansMono-Bold-61" x="842.871094"/>
     <use xlink:href="#DejaVuSansMono-Bold-72" x="903.076172"/>
     <use xlink:href="#DejaVuSansMono-Bold-6b" x="963.28125"/>
     <use xlink:href="#DejaVuSansMono-Bold-65" x="1023.486328"/>
     <use xlink:href="#DejaVuSansMono-Bold-74" x="1083.691406"/>
    </g>
   </g>
   <g id="patch_8">
    <path d="M 308.825873 161.468875 
Q 308.825873 181.486262 308.825873 201.50365 
L 312.825873 201.50365 
Q 310.325873 206.504561 307.825873 211.505472 
Q 305.325873 206.504561 302.825873 201.50365 
L 306.825873 201.50365 
Q 306.825873 181.486262 306.825873 161.468875 
L 308.825873 161.468875 
z
" style="stroke: #000000; stroke-linecap: round"/>
   </g>
   <g id="text_19">
    <!-- Bear Stearns Fails -->
    <g transform="translate(307.825873 156.975597) scale(0.12 -0.12)">
     <defs>
      <path id="DejaVuSansMono-Bold-42" d="M 1281 2119 
L 1281 738 
L 1894 738 
Q 2334 738 2511 888 
Q 2688 1038 2688 1409 
Q 2688 1788 2503 1953 
Q 2319 2119 1894 2119 
L 1281 2119 
z
M 1281 3938 
L 1281 2853 
L 1894 2853 
Q 2244 2853 2392 2978 
Q 2541 3103 2541 3391 
Q 2541 3678 2389 3808 
Q 2238 3938 1894 3938 
L 1281 3938 
z
M 391 4672 
L 1894 4672 
Q 2672 4672 3064 4376 
Q 3456 4081 3456 3494 
Q 3456 3044 3225 2791 
Q 2994 2538 2547 2497 
Q 3081 2444 3351 2137 
Q 3622 1831 3622 1281 
Q 3622 606 3215 303 
Q 2809 0 1894 0 
L 391 0 
L 391 4672 
z
" transform="scale(0.015625)"/>
      <path id="DejaVuSansMono-Bold-53" d="M 1594 2047 
Q 897 2313 650 2605 
Q 403 2897 403 3391 
Q 403 4025 809 4387 
Q 1216 4750 1925 4750 
Q 2247 4750 2569 4676 
Q 2891 4603 3206 4459 
L 3206 3559 
Q 2909 3769 2603 3878 
Q 2297 3988 1997 3988 
Q 1663 3988 1484 3853 
Q 1306 3719 1306 3469 
Q 1306 3275 1436 3148 
Q 1566 3022 1978 2869 
L 2375 2719 
Q 2938 2513 3203 2172 
Q 3469 1831 3469 1313 
Q 3469 606 3051 257 
Q 2634 -91 1791 -91 
Q 1444 -91 1095 -8 
Q 747 75 422 238 
L 422 1191 
Q 791 928 1136 800 
Q 1481 672 1819 672 
Q 2159 672 2346 826 
Q 2534 981 2534 1259 
Q 2534 1469 2409 1626 
Q 2284 1784 2047 1875 
L 1594 2047 
z
" transform="scale(0.015625)"/>
      <path id="DejaVuSansMono-Bold-6e" d="M 3347 2272 
L 3347 0 
L 2438 0 
L 2438 2131 
Q 2438 2513 2330 2677 
Q 2222 2841 1978 2841 
Q 1731 2841 1589 2619 
Q 1447 2397 1447 2003 
L 1447 0 
L 538 0 
L 538 3500 
L 1447 3500 
L 1447 2975 
Q 1544 3266 1778 3425 
Q 2013 3584 2344 3584 
Q 2841 3584 3094 3254 
Q 3347 2925 3347 2272 
z
" transform="scale(0.015625)"/>
      <path id="DejaVuSansMono-Bold-73" d="M 3097 3391 
L 3097 2591 
Q 2844 2753 2570 2836 
Q 2297 2919 2022 2919 
Q 1716 2919 1559 2830 
Q 1403 2741 1403 2566 
Q 1403 2316 2072 2159 
L 2106 2150 
L 2369 2088 
Q 2869 1969 3101 1705 
Q 3334 1441 3334 991 
Q 3334 450 2979 179 
Q 2625 -91 1913 -91 
Q 1597 -91 1265 -36 
Q 934 19 594 128 
L 594 928 
Q 897 756 1211 665 
Q 1525 575 1819 575 
Q 2141 575 2306 669 
Q 2472 763 2472 941 
Q 2472 1116 2355 1209 
Q 2238 1303 1797 1409 
L 1544 1466 
Q 1019 1584 778 1837 
Q 538 2091 538 2516 
Q 538 3022 903 3303 
Q 1269 3584 1931 3584 
Q 2228 3584 2523 3536 
Q 2819 3488 3097 3391 
z
" transform="scale(0.015625)"/>
      <path id="DejaVuSansMono-Bold-46" d="M 3475 3853 
L 1491 3853 
L 1491 2847 
L 3297 2847 
L 3297 2034 
L 1491 2034 
L 1491 0 
L 569 0 
L 569 4666 
L 3475 4666 
L 3475 3853 
z
" transform="scale(0.015625)"/>
      <path id="DejaVuSansMono-Bold-69" d="M 691 3500 
L 2503 3500 
L 2503 703 
L 3641 703 
L 3641 0 
L 447 0 
L 447 703 
L 1588 703 
L 1588 2797 
L 691 2797 
L 691 3500 
z
M 1588 5203 
L 2503 5203 
L 2503 4134 
L 1588 4134 
L 1588 5203 
z
" transform="scale(0.015625)"/>
     </defs>
     <use xlink:href="#DejaVuSansMono-Bold-42"/>
     <use xlink:href="#DejaVuSansMono-Bold-65" x="60.205078"/>
     <use xlink:href="#DejaVuSansMono-Bold-61" x="120.410156"/>
     <use xlink:href="#DejaVuSansMono-Bold-72" x="180.615234"/>
     <use xlink:href="#DejaVuSansMono-Bold-20" x="240.820312"/>
     <use xlink:href="#DejaVuSansMono-Bold-53" x="301.025391"/>
     <use xlink:href="#DejaVuSansMono-Bold-74" x="361.230469"/>
     <use xlink:href="#DejaVuSansMono-Bold-65" x="421.435547"/>
     <use xlink:href="#DejaVuSansMono-Bold-61" x="481.640625"/>
     <use xlink:href="#DejaVuSansMono-Bold-72" x="541.845703"/>
     <use xlink:href="#DejaVuSansMono-Bold-6e" x="602.050781"/>
     <use xlink:href="#DejaVuSansMono-Bold-73" x="662.255859"/>
     <use xlink:href="#DejaVuSansMono-Bold-20" x="722.460938"/>
     <use xlink:href="#DejaVuSansMono-Bold-46" x="782.666016"/>
     <use xlink:href="#DejaVuSansMono-Bold-61" x="842.871094"/>
     <use xlink:href="#DejaVuSansMono-Bold-69" x="903.076172"/>
     <use xlink:href="#DejaVuSansMono-Bold-6c" x="963.28125"/>
     <use xlink:href="#DejaVuSansMono-Bold-73" x="1023.486328"/>
    </g>
   </g>
   <g id="patch_9">
    <path d="M 444.029158 293.830603 
Q 444.029158 313.84799 444.029158 333.865378 
L 448.029158 333.865378 
Q 445.529158 338.866289 443.029158 343.8672 
Q 440.529158 338.866289 438.029158 333.865378 
L 442.029158 333.865378 
Q 442.029158 313.84799 442.029158 293.830603 
L 444.029158 293.830603 
z
" style="stroke: #000000; stroke-linecap: round"/>
   </g>
   <g id="text_20">
    <!-- Lehman Bankruptcy -->
    <g transform="translate(443.029158 289.337325) scale(0.12 -0.12)">
     <defs>
      <path id="DejaVuSansMono-Bold-4c" d="M 703 0 
L 703 4666 
L 1625 4666 
L 1625 813 
L 3597 813 
L 3597 0 
L 703 0 
z
" transform="scale(0.015625)"/>
      <path id="DejaVuSansMono-Bold-68" d="M 3347 2272 
L 3347 0 
L 2438 0 
L 2438 2131 
Q 2438 2509 2330 2671 
Q 2222 2834 1978 2834 
Q 1728 2834 1587 2614 
Q 1447 2394 1447 2003 
L 1447 0 
L 538 0 
L 538 4863 
L 1447 4863 
L 1447 2975 
Q 1544 3266 1778 3425 
Q 2013 3584 2344 3584 
Q 2841 3584 3094 3254 
Q 3347 2925 3347 2272 
z
" transform="scale(0.015625)"/>
      <path id="DejaVuSansMono-Bold-70" d="M 1381 494 
L 1381 -1331 
L 469 -1331 
L 469 3500 
L 1381 3500 
L 1381 2975 
Q 1525 3278 1759 3431 
Q 1994 3584 2309 3584 
Q 2909 3584 3240 3103 
Q 3572 2622 3572 1747 
Q 3572 859 3236 384 
Q 2900 -91 2278 -91 
Q 1997 -91 1773 54 
Q 1550 200 1381 494 
z
M 2656 1753 
Q 2656 2259 2487 2546 
Q 2319 2834 2022 2834 
Q 1725 2834 1553 2546 
Q 1381 2259 1381 1753 
Q 1381 1247 1553 959 
Q 1725 672 2022 672 
Q 2319 672 2487 959 
Q 2656 1247 2656 1753 
z
" transform="scale(0.015625)"/>
      <path id="DejaVuSansMono-Bold-63" d="M 3316 178 
Q 3084 44 2818 -23 
Q 2553 -91 2247 -91 
Q 1438 -91 981 396 
Q 525 884 525 1747 
Q 525 2613 984 3102 
Q 1444 3591 2253 3591 
Q 2534 3591 2795 3525 
Q 3056 3459 3316 3322 
L 3316 2484 
Q 3116 2656 2877 2748 
Q 2638 2841 2381 2841 
Q 1934 2841 1693 2556 
Q 1453 2272 1453 1747 
Q 1453 1222 1693 940 
Q 1934 659 2381 659 
Q 2647 659 2878 748 
Q 3109 838 3316 1019 
L 3316 178 
z
" transform="scale(0.015625)"/>
      <path id="DejaVuSansMono-Bold-79" d="M 2222 -378 
Q 2038 -872 1780 -1098 
Q 1522 -1325 1153 -1325 
L 397 -1325 
L 397 -628 
L 769 -628 
Q 1050 -628 1181 -533 
Q 1313 -438 1447 -91 
L 1516 97 
L 184 3500 
L 1147 3500 
L 1947 1228 
L 2713 3500 
L 3675 3500 
L 2222 -378 
z
" transform="scale(0.015625)"/>
     </defs>
     <use xlink:href="#DejaVuSansMono-Bold-4c"/>
     <use xlink:href="#DejaVuSansMono-Bold-65" x="60.205078"/>
     <use xlink:href="#DejaVuSansMono-Bold-68" x="120.410156"/>
     <use xlink:href="#DejaVuSansMono-Bold-6d" x="180.615234"/>
     <use xlink:href="#DejaVuSansMono-Bold-61" x="240.820312"/>
     <use xlink:href="#DejaVuSansMono-Bold-6e" x="301.025391"/>
     <use xlink:href="#DejaVuSansMono-Bold-20" x="361.230469"/>
     <use xlink:href="#DejaVuSansMono-Bold-42" x="421.435547"/>
     <use xlink:href="#DejaVuSansMono-Bold-61" x="481.640625"/>
     <use xlink:href="#DejaVuSansMono-Bold-6e" x="541.845703"/>
     <use xlink:href="#DejaVuSansMono-Bold-6b" x="602.050781"/>
     <use xlink:href="#DejaVuSansMono-Bold-72" x="662.255859"/>
     <use xlink:href="#DejaVuSansMono-Bold-75" x="722.460938"/>
     <use xlink:href="#DejaVuSansMono-Bold-70" x="782.666016"/>
     <use xlink:href="#DejaVuSansMono-Bold-74" x="842.871094"/>
     <use xlink:href="#DejaVuSansMono-Bold-63" x="903.076172"/>
     <use xlink:href="#DejaVuSansMono-Bold-79" x="963.28125"/>
    </g>
   </g>
   <g id="text_21">
    <!-- important dates -->
    <g transform="translate(377.780625 63.12) scale(0.144 -0.144)">
     <defs>
      <path id="DejaVuSansMono-69" d="M 800 3500 
L 2272 3500 
L 2272 447 
L 3413 447 
L 3413 0 
L 556 0 
L 556 447 
L 1697 447 
L 1697 3053 
L 800 3053 
L 800 3500 
z
M 1697 4863 
L 2272 4863 
L 2272 4134 
L 1697 4134 
L 1697 4863 
z
" transform="scale(0.015625)"/>
      <path id="DejaVuSansMono-6d" d="M 2113 3144 
Q 2219 3369 2383 3476 
Q 2547 3584 2778 3584 
Q 3200 3584 3373 3257 
Q 3547 2931 3547 2028 
L 3547 0 
L 3022 0 
L 3022 2003 
Q 3022 2744 2939 2923 
Q 2856 3103 2638 3103 
Q 2388 3103 2295 2911 
Q 2203 2719 2203 2003 
L 2203 0 
L 1678 0 
L 1678 2003 
Q 1678 2753 1589 2928 
Q 1500 3103 1269 3103 
Q 1041 3103 952 2911 
Q 863 2719 863 2003 
L 863 0 
L 341 0 
L 341 3500 
L 863 3500 
L 863 3200 
Q 966 3388 1120 3486 
Q 1275 3584 1472 3584 
Q 1709 3584 1867 3475 
Q 2025 3366 2113 3144 
z
" transform="scale(0.015625)"/>
      <path id="DejaVuSansMono-70" d="M 1172 441 
L 1172 -1331 
L 594 -1331 
L 594 3500 
L 1172 3500 
L 1172 3053 
Q 1316 3313 1555 3448 
Q 1794 3584 2106 3584 
Q 2741 3584 3102 3093 
Q 3463 2603 3463 1734 
Q 3463 881 3100 395 
Q 2738 -91 2106 -91 
Q 1788 -91 1548 45 
Q 1309 181 1172 441 
z
M 2859 1747 
Q 2859 2416 2648 2756 
Q 2438 3097 2022 3097 
Q 1603 3097 1387 2755 
Q 1172 2413 1172 1747 
Q 1172 1084 1387 740 
Q 1603 397 2022 397 
Q 2438 397 2648 737 
Q 2859 1078 2859 1747 
z
" transform="scale(0.015625)"/>
      <path id="DejaVuSansMono-6f" d="M 1925 3097 
Q 1488 3097 1263 2756 
Q 1038 2416 1038 1747 
Q 1038 1081 1263 739 
Q 1488 397 1925 397 
Q 2366 397 2591 739 
Q 2816 1081 2816 1747 
Q 2816 2416 2591 2756 
Q 2366 3097 1925 3097 
z
M 1925 3584 
Q 2653 3584 3039 3112 
Q 3425 2641 3425 1747 
Q 3425 850 3040 379 
Q 2656 -91 1925 -91 
Q 1197 -91 812 379 
Q 428 850 428 1747 
Q 428 2641 812 3112 
Q 1197 3584 1925 3584 
z
" transform="scale(0.015625)"/>
      <path id="DejaVuSansMono-72" d="M 3609 2778 
Q 3425 2922 3234 2987 
Q 3044 3053 2816 3053 
Q 2278 3053 1993 2715 
Q 1709 2378 1709 1741 
L 1709 0 
L 1131 0 
L 1131 3500 
L 1709 3500 
L 1709 2816 
Q 1853 3188 2151 3386 
Q 2450 3584 2859 3584 
Q 3072 3584 3256 3531 
Q 3441 3478 3609 3366 
L 3609 2778 
z
" transform="scale(0.015625)"/>
      <path id="DejaVuSansMono-6e" d="M 3284 2169 
L 3284 0 
L 2706 0 
L 2706 2169 
Q 2706 2641 2540 2862 
Q 2375 3084 2022 3084 
Q 1619 3084 1401 2798 
Q 1184 2513 1184 1978 
L 1184 0 
L 609 0 
L 609 3500 
L 1184 3500 
L 1184 2975 
Q 1338 3275 1600 3429 
Q 1863 3584 2222 3584 
Q 2756 3584 3020 3232 
Q 3284 2881 3284 2169 
z
" transform="scale(0.015625)"/>
      <path id="DejaVuSansMono-20" transform="scale(0.015625)"/>
      <path id="DejaVuSansMono-64" d="M 2681 3053 
L 2681 4863 
L 3256 4863 
L 3256 0 
L 2681 0 
L 2681 441 
Q 2538 181 2298 45 
Q 2059 -91 1747 -91 
Q 1113 -91 748 401 
Q 384 894 384 1759 
Q 384 2613 750 3098 
Q 1116 3584 1747 3584 
Q 2063 3584 2303 3448 
Q 2544 3313 2681 3053 
z
M 991 1747 
Q 991 1078 1203 737 
Q 1416 397 1831 397 
Q 2247 397 2464 740 
Q 2681 1084 2681 1747 
Q 2681 2413 2464 2755 
Q 2247 3097 1831 3097 
Q 1416 3097 1203 2756 
Q 991 2416 991 1747 
z
" transform="scale(0.015625)"/>
      <path id="DejaVuSansMono-73" d="M 3041 3378 
L 3041 2816 
Q 2794 2959 2544 3031 
Q 2294 3103 2034 3103 
Q 1644 3103 1451 2976 
Q 1259 2850 1259 2591 
Q 1259 2356 1403 2240 
Q 1547 2125 2119 2016 
L 2350 1972 
Q 2778 1891 2998 1647 
Q 3219 1403 3219 1013 
Q 3219 494 2850 201 
Q 2481 -91 1825 -91 
Q 1566 -91 1281 -36 
Q 997 19 666 128 
L 666 722 
Q 988 556 1281 473 
Q 1575 391 1838 391 
Q 2219 391 2428 545 
Q 2638 700 2638 978 
Q 2638 1378 1872 1531 
L 1847 1538 
L 1631 1581 
Q 1134 1678 906 1908 
Q 678 2138 678 2534 
Q 678 3038 1018 3311 
Q 1359 3584 1991 3584 
Q 2272 3584 2531 3532 
Q 2791 3481 3041 3378 
z
" transform="scale(0.015625)"/>
     </defs>
     <use xlink:href="#DejaVuSansMono-69"/>
     <use xlink:href="#DejaVuSansMono-6d" x="60.205078"/>
     <use xlink:href="#DejaVuSansMono-70" x="120.410156"/>
     <use xlink:href="#DejaVuSansMono-6f" x="180.615234"/>
     <use xlink:href="#DejaVuSansMono-72" x="240.820312"/>
     <use xlink:href="#DejaVuSansMono-74" x="301.025391"/>
     <use xlink:href="#DejaVuSansMono-61" x="361.230469"/>
     <use xlink:href="#DejaVuSansMono-6e" x="421.435547"/>
     <use xlink:href="#DejaVuSansMono-74" x="481.640625"/>
     <use xlink:href="#DejaVuSansMono-20" x="541.845703"/>
     <use xlink:href="#DejaVuSansMono-64" x="602.050781"/>
     <use xlink:href="#DejaVuSansMono-61" x="662.255859"/>
     <use xlink:href="#DejaVuSansMono-74" x="722.460938"/>
     <use xlink:href="#DejaVuSansMono-65" x="782.666016"/>
     <use xlink:href="#DejaVuSansMono-73" x="842.871094"/>
    </g>
   </g>
  </g>
 </g>
 <defs>
  <clipPath id="pc04b32a8e2">
   <rect x="108" y="69.12" width="669.6" height="391.68"/>
  </clipPath>
 </defs>
</svg>
